<mxfile modified="2022-06-15T08:21:24.369Z" host="app.diagrams.net" agent="5.0 (X11; Linux x86_64) AppleWebKit/537.36 (KHTML, like Gecko) Chrome/101.0.0.0 Safari/537.36" etag="CVErvyd8YL0mZZPYKLbN" version="20.0.1" type="github">
  <diagram id="Ht1M8jgEwFfnCIfOTk4-" name="Page-1">
    <mxGraphModel dx="2591" dy="1659" grid="1" gridSize="10" guides="1" tooltips="1" connect="1" arrows="1" fold="1" page="1" pageScale="1" pageWidth="1169" pageHeight="827" math="0" shadow="0">
      <root>
        <mxCell id="0" />
        <mxCell id="1" parent="0" />
        <mxCell id="P5nDMNurQUtL296DBPH5-9" value="" style="sketch=0;points=[[0,0,0],[0.25,0,0],[0.5,0,0],[0.75,0,0],[1,0,0],[0,1,0],[0.25,1,0],[0.5,1,0],[0.75,1,0],[1,1,0],[0,0.25,0],[0,0.5,0],[0,0.75,0],[1,0.25,0],[1,0.5,0],[1,0.75,0]];outlineConnect=0;fontColor=#232F3E;gradientColor=#945DF2;gradientDirection=north;fillColor=#5A30B5;strokeColor=#ffffff;dashed=0;verticalLabelPosition=bottom;verticalAlign=top;align=center;html=1;fontSize=12;fontStyle=0;aspect=fixed;shape=mxgraph.aws4.resourceIcon;resIcon=mxgraph.aws4.managed_streaming_for_kafka;" vertex="1" parent="1">
          <mxGeometry x="20" y="-570" width="78" height="78" as="geometry" />
        </mxCell>
        <mxCell id="P5nDMNurQUtL296DBPH5-10" value="" style="image;html=1;image=img/lib/clip_art/computers/Database_Add_128x128.png" vertex="1" parent="1">
          <mxGeometry x="18" y="-390" width="80" height="80" as="geometry" />
        </mxCell>
        <mxCell id="P5nDMNurQUtL296DBPH5-37" style="edgeStyle=orthogonalEdgeStyle;rounded=0;orthogonalLoop=1;jettySize=auto;html=1;entryX=0;entryY=0.5;entryDx=0;entryDy=0;" edge="1" parent="1" source="P5nDMNurQUtL296DBPH5-12" target="P5nDMNurQUtL296DBPH5-15">
          <mxGeometry relative="1" as="geometry" />
        </mxCell>
        <mxCell id="P5nDMNurQUtL296DBPH5-12" value="" style="rounded=0;whiteSpace=wrap;html=1;fillColor=none;dashed=1;" vertex="1" parent="1">
          <mxGeometry x="-1" y="-610" width="120" height="350" as="geometry" />
        </mxCell>
        <mxCell id="P5nDMNurQUtL296DBPH5-13" value="Data Sources&lt;br&gt;" style="text;html=1;resizable=0;autosize=1;align=center;verticalAlign=middle;points=[];fillColor=none;strokeColor=none;rounded=0;dashed=1;" vertex="1" parent="1">
          <mxGeometry x="14" y="-650" width="90" height="20" as="geometry" />
        </mxCell>
        <mxCell id="P5nDMNurQUtL296DBPH5-47" style="edgeStyle=orthogonalEdgeStyle;rounded=0;orthogonalLoop=1;jettySize=auto;html=1;exitX=0.5;exitY=1;exitDx=0;exitDy=0;entryX=0.542;entryY=0.125;entryDx=0;entryDy=0;entryPerimeter=0;fontSize=18;" edge="1" parent="1" source="P5nDMNurQUtL296DBPH5-15" target="P5nDMNurQUtL296DBPH5-17">
          <mxGeometry relative="1" as="geometry" />
        </mxCell>
        <mxCell id="P5nDMNurQUtL296DBPH5-15" value="" style="rounded=0;whiteSpace=wrap;html=1;fillColor=none;strokeWidth=4;" vertex="1" parent="1">
          <mxGeometry x="170" y="-680" width="150" height="260" as="geometry" />
        </mxCell>
        <mxCell id="P5nDMNurQUtL296DBPH5-16" value="&lt;b&gt;&lt;font style=&quot;font-size: 18px;&quot;&gt;Ingestion Layer&lt;/font&gt;&lt;/b&gt;" style="text;html=1;resizable=0;autosize=1;align=center;verticalAlign=middle;points=[];fillColor=none;strokeColor=none;rounded=0;" vertex="1" parent="1">
          <mxGeometry x="170" y="-560" width="150" height="20" as="geometry" />
        </mxCell>
        <mxCell id="P5nDMNurQUtL296DBPH5-24" style="edgeStyle=orthogonalEdgeStyle;rounded=0;orthogonalLoop=1;jettySize=auto;html=1;entryX=0;entryY=0.5;entryDx=0;entryDy=0;" edge="1" parent="1" source="P5nDMNurQUtL296DBPH5-17" target="P5nDMNurQUtL296DBPH5-22">
          <mxGeometry relative="1" as="geometry" />
        </mxCell>
        <mxCell id="P5nDMNurQUtL296DBPH5-17" value="" style="shape=image;html=1;verticalAlign=top;verticalLabelPosition=bottom;labelBackgroundColor=#ffffff;imageAspect=0;aspect=fixed;image=https://cdn2.iconfinder.com/data/icons/seo-flat-6/128/03_Landing_Page_Optimization-128.png;strokeWidth=4;fillColor=none;" vertex="1" parent="1">
          <mxGeometry x="180" y="-355" width="120" height="120" as="geometry" />
        </mxCell>
        <mxCell id="P5nDMNurQUtL296DBPH5-19" value="Landing Zone" style="text;html=1;resizable=0;autosize=1;align=center;verticalAlign=middle;points=[];fillColor=none;strokeColor=none;rounded=0;" vertex="1" parent="1">
          <mxGeometry x="200" y="-240" width="90" height="20" as="geometry" />
        </mxCell>
        <mxCell id="P5nDMNurQUtL296DBPH5-32" style="edgeStyle=orthogonalEdgeStyle;rounded=0;orthogonalLoop=1;jettySize=auto;html=1;entryX=0;entryY=0.5;entryDx=0;entryDy=0;" edge="1" parent="1" source="P5nDMNurQUtL296DBPH5-20" target="P5nDMNurQUtL296DBPH5-27">
          <mxGeometry relative="1" as="geometry" />
        </mxCell>
        <mxCell id="P5nDMNurQUtL296DBPH5-20" value="" style="shape=image;html=1;verticalAlign=top;verticalLabelPosition=bottom;labelBackgroundColor=#ffffff;imageAspect=0;aspect=fixed;image=https://cdn2.iconfinder.com/data/icons/coronavirus-protective-measures-highlight/128/Clean-phone-disinfection-surface-128.png;strokeWidth=4;fillColor=none;" vertex="1" parent="1">
          <mxGeometry x="440" y="-340" width="100" height="100" as="geometry" />
        </mxCell>
        <mxCell id="P5nDMNurQUtL296DBPH5-25" style="edgeStyle=orthogonalEdgeStyle;rounded=0;orthogonalLoop=1;jettySize=auto;html=1;" edge="1" parent="1" source="P5nDMNurQUtL296DBPH5-22" target="P5nDMNurQUtL296DBPH5-20">
          <mxGeometry relative="1" as="geometry" />
        </mxCell>
        <mxCell id="P5nDMNurQUtL296DBPH5-22" value="" style="rounded=0;whiteSpace=wrap;html=1;fillColor=none;strokeWidth=4;" vertex="1" parent="1">
          <mxGeometry x="430" y="-590" width="120" height="80" as="geometry" />
        </mxCell>
        <mxCell id="P5nDMNurQUtL296DBPH5-23" value="Validate&lt;br&gt;Clean&lt;br&gt;Standardize" style="text;html=1;resizable=0;autosize=1;align=center;verticalAlign=middle;points=[];fillColor=none;strokeColor=none;rounded=0;" vertex="1" parent="1">
          <mxGeometry x="450" y="-585" width="80" height="50" as="geometry" />
        </mxCell>
        <mxCell id="P5nDMNurQUtL296DBPH5-26" value="Clean Zone" style="text;html=1;resizable=0;autosize=1;align=center;verticalAlign=middle;points=[];fillColor=none;strokeColor=none;rounded=0;" vertex="1" parent="1">
          <mxGeometry x="435" y="-240" width="80" height="20" as="geometry" />
        </mxCell>
        <mxCell id="P5nDMNurQUtL296DBPH5-40" style="edgeStyle=orthogonalEdgeStyle;rounded=0;orthogonalLoop=1;jettySize=auto;html=1;" edge="1" parent="1" source="P5nDMNurQUtL296DBPH5-27" target="P5nDMNurQUtL296DBPH5-29">
          <mxGeometry relative="1" as="geometry" />
        </mxCell>
        <mxCell id="P5nDMNurQUtL296DBPH5-27" value="" style="rounded=0;whiteSpace=wrap;html=1;fillColor=none;strokeWidth=4;" vertex="1" parent="1">
          <mxGeometry x="630" y="-590" width="120" height="80" as="geometry" />
        </mxCell>
        <mxCell id="P5nDMNurQUtL296DBPH5-28" value="Transform&amp;nbsp;&lt;br&gt;Enrich&lt;br&gt;Model&lt;span style=&quot;white-space: pre;&quot;&gt;	&lt;/span&gt;" style="text;html=1;resizable=0;autosize=1;align=center;verticalAlign=middle;points=[];fillColor=none;strokeColor=none;rounded=0;" vertex="1" parent="1">
          <mxGeometry x="655" y="-575" width="70" height="50" as="geometry" />
        </mxCell>
        <mxCell id="P5nDMNurQUtL296DBPH5-29" value="" style="shape=image;html=1;verticalAlign=top;verticalLabelPosition=bottom;labelBackgroundColor=#ffffff;imageAspect=0;aspect=fixed;image=https://cdn2.iconfinder.com/data/icons/essential-web-2/50/verified-check-secured-legal-certified-128.png;strokeWidth=4;fillColor=none;" vertex="1" parent="1">
          <mxGeometry x="645" y="-340" width="90" height="90" as="geometry" />
        </mxCell>
        <mxCell id="P5nDMNurQUtL296DBPH5-31" value="Curated Zone" style="text;html=1;resizable=0;autosize=1;align=center;verticalAlign=middle;points=[];fillColor=none;strokeColor=none;rounded=0;" vertex="1" parent="1">
          <mxGeometry x="645" y="-240" width="90" height="20" as="geometry" />
        </mxCell>
        <mxCell id="P5nDMNurQUtL296DBPH5-33" value="" style="rounded=0;whiteSpace=wrap;html=1;strokeWidth=4;fillColor=none;" vertex="1" parent="1">
          <mxGeometry x="940" y="-675" width="150" height="250" as="geometry" />
        </mxCell>
        <mxCell id="P5nDMNurQUtL296DBPH5-34" value="&lt;font style=&quot;font-size: 18px;&quot;&gt;&lt;b&gt;Consumption &lt;br&gt;Layer&lt;/b&gt;&lt;/font&gt;" style="text;html=1;resizable=0;autosize=1;align=center;verticalAlign=middle;points=[];fillColor=none;strokeColor=none;rounded=0;" vertex="1" parent="1">
          <mxGeometry x="960" y="-565" width="130" height="40" as="geometry" />
        </mxCell>
        <mxCell id="P5nDMNurQUtL296DBPH5-36" style="edgeStyle=orthogonalEdgeStyle;rounded=0;orthogonalLoop=1;jettySize=auto;html=1;entryX=-0.008;entryY=0.476;entryDx=0;entryDy=0;entryPerimeter=0;" edge="1" parent="1" source="P5nDMNurQUtL296DBPH5-35" target="P5nDMNurQUtL296DBPH5-33">
          <mxGeometry relative="1" as="geometry">
            <Array as="points">
              <mxPoint x="910" y="-274" />
              <mxPoint x="910" y="-556" />
            </Array>
          </mxGeometry>
        </mxCell>
        <mxCell id="P5nDMNurQUtL296DBPH5-35" value="" style="rounded=0;whiteSpace=wrap;html=1;fillColor=none;dashed=1;" vertex="1" parent="1">
          <mxGeometry x="180" y="-387.5" width="590" height="227.5" as="geometry" />
        </mxCell>
        <mxCell id="P5nDMNurQUtL296DBPH5-38" value="" style="rounded=0;whiteSpace=wrap;html=1;fillColor=none;dashed=1;" vertex="1" parent="1">
          <mxGeometry x="90" y="-730" width="940" height="630" as="geometry" />
        </mxCell>
        <mxCell id="P5nDMNurQUtL296DBPH5-39" value="&lt;b&gt;&lt;font style=&quot;font-size: 20px;&quot;&gt;Data Lake&lt;/font&gt;&lt;/b&gt;" style="text;html=1;resizable=0;autosize=1;align=center;verticalAlign=middle;points=[];fillColor=none;strokeColor=none;rounded=0;dashed=1;" vertex="1" parent="1">
          <mxGeometry x="500" y="-780" width="110" height="20" as="geometry" />
        </mxCell>
        <mxCell id="P5nDMNurQUtL296DBPH5-41" value="&lt;b&gt;&lt;font style=&quot;font-size: 18px;&quot;&gt;Processing Layer&lt;/font&gt;&lt;/b&gt;" style="text;html=1;resizable=0;autosize=1;align=center;verticalAlign=middle;points=[];fillColor=none;strokeColor=none;rounded=0;dashed=1;" vertex="1" parent="1">
          <mxGeometry x="530" y="-660" width="170" height="20" as="geometry" />
        </mxCell>
        <mxCell id="P5nDMNurQUtL296DBPH5-42" value="Data Processing Pipeline" style="text;html=1;resizable=0;autosize=1;align=center;verticalAlign=middle;points=[];fillColor=none;strokeColor=none;rounded=0;dashed=1;" vertex="1" parent="1">
          <mxGeometry x="540" y="-620" width="150" height="20" as="geometry" />
        </mxCell>
        <mxCell id="P5nDMNurQUtL296DBPH5-43" value="" style="rounded=0;whiteSpace=wrap;html=1;fillColor=none;dashed=1;" vertex="1" parent="1">
          <mxGeometry x="380" y="-630" width="430" height="160" as="geometry" />
        </mxCell>
        <mxCell id="P5nDMNurQUtL296DBPH5-45" value="" style="rounded=0;whiteSpace=wrap;html=1;fillColor=none;strokeWidth=4;" vertex="1" parent="1">
          <mxGeometry x="340" y="-680" width="520" height="250" as="geometry" />
        </mxCell>
        <mxCell id="P5nDMNurQUtL296DBPH5-48" value="&lt;b&gt;&lt;font style=&quot;font-size: 18px;&quot;&gt;Storage Layer&lt;/font&gt;&lt;/b&gt;" style="text;html=1;resizable=0;autosize=1;align=center;verticalAlign=middle;points=[];fillColor=none;strokeColor=none;rounded=0;" vertex="1" parent="1">
          <mxGeometry x="405" y="-195" width="140" height="20" as="geometry" />
        </mxCell>
      </root>
    </mxGraphModel>
  </diagram>
</mxfile>
